<svg xmlns="http://www.w3.org/2000/svg" viewBox="628 447 774 1046">
<defs>
	<linearGradient id="g1" gradientUnits="userSpaceOnUse" x1="906.185" y1="1168.76" x2="656.891" y2="1056.88">
		<stop offset="0" stop-color="rgb(229,89,76)"/>
		<stop offset="1" stop-color="rgb(229,135,77)"/>
	</linearGradient>
	<linearGradient id="g2" gradientUnits="userSpaceOnUse" x1="903.721" y1="760.339" x2="1165.8" y2="719.204">
		<stop offset="0" stop-color="rgb(229,144,76)"/>
		<stop offset="1" stop-color="rgb(248,199,86)"/>
	</linearGradient>
	<linearGradient id="g3" gradientUnits="userSpaceOnUse" x1="1082.09" y1="1128.05" x2="1351.66" y2="976.994">
		<stop offset="0" stop-color="rgb(226,107,70)"/>
		<stop offset="1" stop-color="rgb(231,163,80)"/>
	</linearGradient>
</defs>
<path fill="url(#g3)" d="M 1154.04 730.639 C 1254.73 800.793 1342.06 916.816 1364.07 1039.24 C 1381.69 1136.39 1360.11 1236.57 1304.06 1317.85 C 1286.47 1343.04 1254.07 1380.06 1228.36 1396.65 C 1190.59 1430.76 1128.6 1455.44 1079.18 1465.07 C 1075.85 1463.73 1074.64 1464.04 1071.09 1464.21 L 1069.86 1464.28 C 1088.42 1454.68 1102.12 1448.49 1118.21 1434.99 C 1147.86 1410.13 1172.26 1366.52 1174.82 1327.61 C 1178.46 1272.06 1163.36 1214.2 1132.42 1167.74 C 1126.02 1158.13 1118.01 1148.85 1110.58 1140.08 C 1111.52 1134.62 1109.57 1116.14 1109.19 1109.43 C 1106.79 1066.75 1111.79 1026.83 1120.88 985.157 C 1125.62 965.636 1130.98 946.27 1136.94 927.088 C 1143.69 913.577 1150.4 891.614 1158.43 875.039 C 1177.39 891.806 1197.32 907.629 1215.97 924.348 C 1216.03 908.957 1215.43 892.359 1212.73 877.232 C 1204.46 830.785 1179.24 770.427 1154.04 730.639 z"/>
<path fill="rgb(187,69,73)" d="M 1120.88 985.157 C 1130 989.711 1145.89 1002.24 1154.06 1008.95 C 1205.77 1050.8 1244.31 1106.66 1265.09 1169.85 C 1272.18 1190.79 1276.78 1212.49 1278.79 1234.51 C 1280.46 1296.84 1263.1 1344.03 1228.51 1393.56 C 1227.82 1394.56 1227.69 1395.69 1228.36 1396.65 C 1190.59 1430.76 1128.6 1455.44 1079.18 1465.07 C 1075.85 1463.73 1074.64 1464.04 1071.09 1464.21 L 1069.86 1464.28 C 1088.42 1454.68 1102.12 1448.49 1118.21 1434.99 C 1147.86 1410.13 1172.26 1366.52 1174.82 1327.61 C 1178.46 1272.06 1163.36 1214.2 1132.42 1167.74 C 1126.02 1158.13 1118.01 1148.85 1110.58 1140.08 C 1111.52 1134.62 1109.57 1116.14 1109.19 1109.43 C 1106.79 1066.75 1111.79 1026.83 1120.88 985.157 z"/>
<path fill="rgb(229,89,80)" d="M 1136.94 927.088 C 1171.46 949.065 1203.05 971.322 1229.83 1002.01 C 1277.94 1057.14 1305.24 1130.36 1286.71 1202.95 C 1284.35 1212.19 1278.68 1225.7 1278.79 1234.51 C 1276.78 1212.49 1272.18 1190.79 1265.09 1169.85 C 1244.31 1106.66 1205.77 1050.8 1154.06 1008.95 C 1145.89 1002.24 1130 989.711 1120.88 985.157 C 1125.62 965.636 1130.98 946.27 1136.94 927.088 z"/>
<path fill="url(#g2)" d="M 894.078 711.395 C 921.432 618.911 1001.79 534.727 1085.45 489.327 C 1101.21 480.752 1117.52 473.238 1134.28 466.836 C 1082.99 525.515 1044.26 602.154 1049.85 681.888 C 1055.52 762.741 1100.51 823.213 1158.43 875.039 C 1150.4 891.614 1143.69 913.577 1136.94 927.088 C 1130.98 946.27 1125.62 965.636 1120.88 985.157 C 1111.79 1026.83 1106.79 1066.75 1109.19 1109.43 C 1109.57 1116.14 1111.52 1134.62 1110.58 1140.08 C 1106.01 1134.67 1074.12 1103.7 1068.46 1102.92 C 1064.28 1095.56 1026.81 1061.6 1018.82 1054.44 C 974.722 1014.91 938.694 979.656 910.712 926.689 C 875.381 859.81 871.927 783.048 894.078 711.395 z"/>
<path fill="rgb(229,89,80)" d="M 894.078 711.395 C 897.629 716.117 898.013 730.387 898.967 737.147 C 901.394 754.328 904.423 771.338 910.869 787.546 C 951.4 894.28 1032.86 930.002 1120.88 985.157 C 1111.79 1026.83 1106.79 1066.75 1109.19 1109.43 C 1109.57 1116.14 1111.52 1134.62 1110.58 1140.08 C 1106.01 1134.67 1074.12 1103.7 1068.46 1102.92 C 1064.28 1095.56 1026.81 1061.6 1018.82 1054.44 C 974.722 1014.91 938.694 979.656 910.712 926.689 C 875.381 859.81 871.927 783.048 894.078 711.395 z"/>
<path fill="rgb(136,56,65)" d="M 1068.46 1102.92 C 1074.12 1103.7 1106.01 1134.67 1110.58 1140.08 C 1118.01 1148.85 1126.02 1158.13 1132.42 1167.74 C 1163.36 1214.2 1178.46 1272.06 1174.82 1327.61 C 1172.26 1366.52 1147.86 1410.13 1118.21 1434.99 C 1102.12 1448.49 1088.42 1454.68 1069.86 1464.28 L 1071.09 1464.21 C 1074.64 1464.04 1075.85 1463.73 1079.18 1465.07 C 1054.85 1470.09 993.215 1473.25 969.837 1467.1 C 923.318 1460.25 878.728 1443.82 838.888 1418.85 C 831.484 1414.22 818.723 1405.97 812.757 1400 C 815.081 1394.54 804.709 1369.82 802.532 1362.65 C 771.695 1261.01 845.037 1145.36 947.258 1122.12 C 949.41 1121.63 949.39 1117.55 949.469 1116.07 C 971.299 1139.97 982.782 1152.22 997.102 1181.95 C 1006.21 1202.82 1009.08 1225.88 1005.38 1248.34 C 996 1303.91 955.364 1348.28 910.837 1379.87 C 1013.45 1383.02 1095.38 1290.76 1097.08 1191.18 C 1097.65 1157.58 1086.29 1130.67 1068.46 1102.92 z"/>
<path fill="rgb(187,69,73)" d="M 949.469 1116.07 C 971.299 1139.97 982.782 1152.22 997.102 1181.95 C 995.345 1187.84 995.215 1187.85 997.958 1194.17 C 953.715 1201.14 918.493 1212.93 890.656 1250.83 C 871.127 1277.46 862.98 1310.77 868.008 1343.41 C 876.03 1394.3 911.876 1434.79 956.439 1457.34 C 961.192 1459.75 972.332 1462.48 975.459 1466.1 C 973.013 1467.12 972.532 1466.94 969.837 1467.1 C 923.318 1460.25 878.728 1443.82 838.888 1418.85 C 831.484 1414.22 818.723 1405.97 812.757 1400 C 815.081 1394.54 804.709 1369.82 802.532 1362.65 C 771.695 1261.01 845.037 1145.36 947.258 1122.12 C 949.41 1121.63 949.39 1117.55 949.469 1116.07 z"/>
<path fill="url(#g1)" d="M 778.605 820.631 C 787.61 807.388 801.974 787.953 813.081 776.258 C 812.324 788.985 810.187 801.265 809.413 814.369 C 806.924 854.183 811.819 894.114 823.849 932.148 C 839.316 979.744 857.034 1008.49 886.963 1047.77 C 905.603 1069.97 929.018 1095.06 949.469 1116.07 C 949.39 1117.55 949.41 1121.63 947.258 1122.12 C 845.037 1145.36 771.695 1261.01 802.532 1362.65 C 804.709 1369.82 815.081 1394.54 812.757 1400 C 810.978 1398.76 809.261 1397.29 807.567 1395.92 C 690.681 1303.2 647.686 1154.39 683.298 1011.8 C 699.874 945.432 729.71 892.708 767.663 836.658 L 778.605 820.631 z"/>
<path fill="rgb(229,89,80)" d="M 886.963 1047.77 C 905.603 1069.97 929.018 1095.06 949.469 1116.07 C 949.39 1117.55 949.41 1121.63 947.258 1122.12 C 845.037 1145.36 771.695 1261.01 802.532 1362.65 C 804.709 1369.82 815.081 1394.54 812.757 1400 C 810.978 1398.76 809.261 1397.29 807.567 1395.92 C 808.152 1389.43 801.626 1381.53 798.042 1375.73 C 791.363 1365.07 785.709 1353.81 781.154 1342.09 C 775.509 1327.91 772.135 1313.66 769.618 1298.63 C 755.614 1214.99 787.014 1134.7 849.239 1078.09 C 861.517 1066.9 875.042 1058.34 886.963 1047.77 z"/>
<path fill="rgb(231,147,77)" d="M 778.605 820.631 C 787.61 807.388 801.974 787.953 813.081 776.258 C 812.324 788.985 810.187 801.265 809.413 814.369 C 806.924 854.183 811.819 894.114 823.849 932.148 C 839.316 979.744 857.034 1008.49 886.963 1047.77 C 875.042 1058.34 861.517 1066.9 849.239 1078.09 C 829.522 1065.96 800.128 1031.11 789.305 1010.72 C 771.628 977.414 765.481 954.908 764.704 916.834 C 764.518 907.754 763.376 898.305 765.929 889.42 C 766.548 879.711 767.501 872.134 768.861 862.571 C 768.198 858.102 769.448 853.227 770.247 848.666 L 769.323 852.058 C 769.733 843.652 773.653 844.767 767.663 836.658 L 778.605 820.631 z"/>
<path fill="rgb(233,165,80)" d="M 778.605 820.631 C 787.61 807.388 801.974 787.953 813.081 776.258 C 812.324 788.985 810.187 801.265 809.413 814.369 C 806.924 854.183 811.819 894.114 823.849 932.148 C 817.089 944.305 789.725 968.029 777.572 982.962 C 767.109 951.479 765.86 922.003 765.929 889.42 C 766.548 879.711 767.501 872.134 768.861 862.571 C 768.198 858.102 769.448 853.227 770.247 848.666 L 769.323 852.058 C 769.733 843.652 773.653 844.767 767.663 836.658 L 778.605 820.631 z"/>
<path fill="rgb(231,147,77)" d="M 767.663 836.658 L 778.605 820.631 C 780.906 828.984 771.748 853.323 768.861 862.571 C 768.198 858.102 769.448 853.227 770.247 848.666 L 769.323 852.058 C 769.733 843.652 773.653 844.767 767.663 836.658 z"/>
</svg>
